#!OML:ASF F:\VICON\USERDATA\INSTALL\rory3\rory3.ASF
:FULLY-SPECIFIED
:DEGREES
279
root 3.79368 17.5507 31.3048 -0.599242 -5.40714 -8.83418
lowerback 9.45919 2.62473 8.23075
upperback 0.249028 4.4891 2.1962
thorax -4.59656 2.05715 -2.88795
lowerneck -18.4321 -3.24701 -1.44791
upperneck 17.1631 -4.20207 0.698815
head 8.42215 -2.00454 -0.0539413
rclavicle 2.80411e-014 8.29926e-015
rhumerus -20.1092 -7.42754 -83.2966
rradius 32.4726
rwrist -1.31396
rhand -18.6336 23.2037
rfingers 7.12502
rthumb 7.6588 -6.63759
lclavicle 2.80411e-014 8.29926e-015
lhumerus -40.0749 4.30403 83.2131
lradius 26.3175
lwrist 3.60082
lhand -26.8017 21.9419
lfingers 7.12502
lthumb -0.228581 51.9215
rfemur 9.74319 7.36162 35.7754
rtibia 24.8793
rfoot -22.0402 -6.28194
rtoes -3.46538
lfemur -25.8407 -6.43427 -6.31534
ltibia 11.3201
lfoot -6.3676 8.33059
ltoes -14.0657
280
root 3.80942 17.5387 31.5069 -0.631394 -5.46539 -8.1621
lowerback 9.58674 2.69078 7.54407
upperback 0.0991911 4.51811 2.03397
thorax -4.86085 2.0715 -2.69574
lowerneck -18.2466 -3.28764 -1.469
upperneck 17.3244 -4.24743 0.649557
head 8.44397 -2.03291 -0.0712976
rclavicle 3.73342e-015 -1.35671e-014
rhumerus -20.2189 -7.60706 -83.1738
rradius 32.3174
rwrist -1.21307
rhand -18.5527 23.4396
rfingers 7.12502
rthumb 7.7369 -6.39888
lclavicle 3.73342e-015 -1.35671e-014
lhumerus -40.5494 4.37548 83.2295
lradius 25.8217
lwrist 3.9058
lhand -26.7884 21.7564
lfingers 7.12502
lthumb -0.215709 51.7361
rfemur 10.1759 7.41659 34.9747
rtibia 25.4061
rfoot -22.0195 -6.09865
rtoes -4.52006
lfemur -25.8704 -5.86823 -7.42021
ltibia 11.6754
lfoot -5.94283 7.32027
ltoes -14.6777
281
root 3.82574 17.5248 31.7184 -0.701083 -5.48075 -7.955
lowerback 9.43881 2.72568 7.39838
upperback 0.129132 4.52892 1.96781
thorax -4.75022 2.08499 -2.67535
lowerneck -18.06 -3.29364 -1.42023
upperneck 17.3943 -4.27366 0.651554
head 8.43396 -2.04256 -0.0793776
rclavicle -2.82647e-015 -1.75924e-014
rhumerus -20.1763 -7.84464 -83.1247
rradius 32.2325
rwrist -1.23124
rhand -18.5775 24.004
rfingers 7.12502
rthumb 7.71293 -5.83532
lclavicle -2.82647e-015 -1.75924e-014
lhumerus -40.7288 4.30178 83.2926
lradius 25.2259
lwrist 4.3469
lhand -25.1408 24.3966
lfingers 7.12502
lthumb 1.37563 54.3719
rfemur 10.6315 7.44973 34.6849
rtibia 26.0632
rfoot -22.1193 -5.75133
rtoes -4.99784
lfemur -25.8504 -5.53246 -7.97441
ltibia 12.3886
lfoot -5.52003 6.46486
ltoes -13.2641
282
root 3.84464 17.5064 31.9355 -0.829233 -5.38488 -7.91146
lowerback 9.14365 2.71297 7.4877
upperback 0.316989 4.4784 1.92481
thorax -4.38091 2.07683 -2.73841
lowerneck -17.9117 -3.29744 -1.2988
upperneck 17.1922 -4.29977 0.599346
head 8.33565 -2.05433 -0.115146
rclavicle -3.52222e-015 -1.88845e-015
rhumerus -19.9794 -8.42682 -83.1009
rradius 32.2231
rwrist -1.03043
rhand -18.5627 24.1574
rfingers 7.12502
rthumb 7.72723 -5.68138
lclavicle -3.52222e-015 -1.88845e-015
lhumerus -40.5918 4.36602 83.2691
lradius 24.6644
lwrist 4.10272
lhand -24.7155 25.1141
lfingers 7.12502
lthumb 1.78637 55.0863
rfemur 11.0926 7.25383 34.536
rtibia 26.8243
rfoot -21.9452 -5.15476
rtoes -5.69465
lfemur -25.7046 -4.83794 -8.56648
ltibia 13.2573
lfoot -5.45941 5.11404
ltoes -11.613
283
root 3.86026 17.4914 32.1542 -1.01978 -5.33989 -7.62142
lowerback 9.12604 2.69622 7.15102
upperback 0.376469 4.41385 1.87504
thorax -4.33522 2.05475 -2.59434
lowerneck -17.9557 -3.27223 -1.23758
upperneck 17.3298 -4.27388 0.553761
head 8.38712 -2.04182 -0.139315
rclavicle -2.99047e-014 -4.05024e-014
rhumerus -19.9766 -8.74449 -83.0676
rradius 32.2032
rwrist -0.786314
rhand -18.5038 24.1
rfingers 7.12502
rthumb 7.78409 -5.73671
lclavicle -2.99047e-014 -4.05024e-014
lhumerus -40.7149 4.61688 83.1569
lradius 24.2942
lwrist 3.74298
lhand -26.1657 20.8274
lfingers 7.12502
lthumb 0.385705 50.8068
rfemur 11.6734 7.21874 34.1936
rtibia 27.4547
rfoot -21.3091 -4.61345
rtoes -5.97741
lfemur -25.896 -4.19217 -9.38977
ltibia 14.9145
lfoot -5.64789 3.81249
ltoes -11.3472
